{"title":"The Man With Iron Fists 2012 HDRip XviD - [RiSES]","uid":7904769,"size":736672196,"categoryP":"video","categoryS":"movies","magnet":"?xt=urn:btih:aa8dccf4a7053d28a37fc845b14670bf664639e1&amp;dn=The+Man+With+Iron+Fists+2012+HDRip+XviD+-+%5BRiSES%5D&amp;tr=udp%3A%2F%2Ftracker.openbittorrent.com%3A80&amp;tr=udp%3A%2F%2Fopen.demonii.com%3A1337&amp;tr=udp%3A%2F%2Ftracker.coppersurfer.tk%3A6969&amp;tr=udp%3A%2F%2Fexodus.desync.com%3A6969","seeders":1,"leechers":0,"uploader":"NepsterJay","files":2,"time":1355066223,"description":"On the hunt for a fabled treasure of gold, a band of warriors, assassins, and a rogue British soldier descend upon a village in feudal China, where a humble blacksmith looks to defend himself and his fellow villagers.\n\n\nVideo\nID : 0\nFormat : MPEG-4 Visual\nFormat profile : Advanced Simple@L5\nFormat settings, BVOP : 2\nFormat settings, QPel : Yes\nFormat settings, GMC : No warppoints\nFormat settings, Matrix : Default (H.263)\nCodec ID : XVID\nCodec ID/Hint : XviD\nDuration : 1h 35mn\nBit rate : 876 Kbps\nWidth : 672 pixels\nHeight : 320 pixels\nDisplay aspect ratio : 2.100\nFrame rate : 23.976 fps\nColor space : YUV\nChroma subsampling : 4:2:0\nBit depth : 8 bits\nScan type : Progressive\nCompression mode : Lossy\nBits/(Pixel*Frame) : 0.170\nStream size : 600 MiB (87%)\nWriting library : XviD 1.2.1 (UTC 2008-12-04)\n\nAudio\nID : 1\nFormat : MPEG Audio\nFormat version : Version 1\nFormat profile : Layer 3\nMode : Joint stereo\nCodec ID : 55\nCodec ID/Hint : MP3\nDuration : 1h 35mn\nBit rate mode : Constant\nBit rate : 128 Kbps\nChannel(s) : 2 channels\nSampling rate : 48.0 KHz\nCompression mode : Lossy\nStream size : 87.6 MiB (13%)\nAlignment : Aligned on interleaves\nInterleave, duration : 167 ms (4.00 video frames)\nInterleave, preload duration : 216 ms\nTitle : English - [RiSES]\nWriting library : LAME3.99r\nEncoding settings : -m j -V 4 -q 2 -lowpass 17 -b 128\n\nIMDB: The Man with the Iron Fists (2012) - IMDb\n\nEnjoy Nothing to Say. Thanks to RESISTANCE.","torrent":{"xt":"urn:btih:aa8dccf4a7053d28a37fc845b14670bf664639e1","amp;dn":"The+Man+With+Iron+Fists+2012+HDRip+XviD+-+%5BRiSES%5D","amp;tr":["udp%3A%2F%2Ftracker.openbittorrent.com%3A80","udp%3A%2F%2Fopen.demonii.com%3A1337","udp%3A%2F%2Ftracker.coppersurfer.tk%3A6969","udp%3A%2F%2Fexodus.desync.com%3A6969"],"infoHash":"aa8dccf4a7053d28a37fc845b14670bf664639e1","infoHashBuffer":{"type":"Buffer","data":[170,141,204,244,167,5,61,40,163,127,200,69,177,70,112,191,102,70,57,225]},"announce":[],"urlList":[]}}